# xmcd CD database file
#
# Track frame offsets:
#	150
#	16350
#	40350
#	55575
#	67575
#	83550
#	96600
#	115350
#	139200
#	154575
#	171525
#	193650
#	216975
#	236250
#	256875
#
# Disc length: 3688 seconds
#
# Revision: 5
# Processed by: cddbd v1.5.1PL2 Copyright (c) Steve Scherf et al.
# Submitted via: CDex 1.51
#
DISCID=cc0e660f
DTITLE=ゆず - Home [1997-2000]
DYEAR=2005
DGENRE=JPop
TTITLE0=地下街
TTITLE1=なにもない
TTITLE2=夏色
TTITLE3=少年
TTITLE4=雨と泪
TTITLE5=月曜日の週末
TTITLE6=からっぽ
TTITLE7=いつか
TTITLE8=始まりの場所
TTITLE9=サヨナラバス
TTITLE10=センチメンタル
TTITLE11=友達の唄
TTITLE12=心のままに
TTITLE13=飛べない鳥
TTITLE14=嗚呼、青春の日々
EXTD=YEAR: 2005
EXTT0=Blue Oyster Cult\n
EXTT1=Status Quo (as The Spectres]\n
EXTT2=Uriah Heep\n
EXTT3=Tempest\n
EXTT4=Motorhead\n
EXTT5=Robin George\n
EXTT6=The Sensational Alex Harvey Band\n
EXTT7=Colosseum\n
EXTT8=Hells Belles\n
EXTT9=Gary Moore\n
EXTT10=Girlschool\n
EXTT11=Juicy Lucy\n
EXTT12=The Damned\n
EXTT13=Atomic Rooster\n
EXTT14=Angel Witch\n
PLAYORDER=
